<svg width="21" height="20" viewBox="0 0 21 20" fill="none" xmlns="http://www.w3.org/2000/svg">
<g clip-path="url(#clip0_3014_5139)">
<path d="M10.5 17.4902C14.6421 17.4902 18 14.1324 18 9.99023C18 5.8481 14.6421 2.49023 10.5 2.49023C6.35786 2.49023 3 5.8481 3 9.99023C3 14.1324 6.35786 17.4902 10.5 17.4902Z" fill="white"/>
<path d="M10.5 -0.00976562C8.52219 -0.00976562 6.58879 0.576724 4.9443 1.67553C3.29981 2.77435 2.01808 4.33613 1.26121 6.1634C0.504333 7.99066 0.306299 10.0013 0.692152 11.9412C1.078 13.881 2.03041 15.6627 3.42893 17.0613C4.82746 18.4598 6.60929 19.4122 8.5491 19.7981C10.4889 20.1839 12.4996 19.9859 14.3268 19.229C16.1541 18.4722 17.7159 17.1904 18.8147 15.5459C19.9135 13.9014 20.5 11.9681 20.5 9.99023C20.4969 7.33902 19.4423 4.79727 17.5677 2.92258C15.693 1.04788 13.1512 -0.00667794 10.5 -0.00976562ZM16.2725 6.82357L10.5683 14.5644C10.501 14.6537 10.4165 14.7288 10.3198 14.7852C10.2232 14.8415 10.1162 14.8781 10.0053 14.8927C9.89442 14.9072 9.78167 14.8996 9.67375 14.8701C9.56583 14.8407 9.46483 14.79 9.37667 14.7211L5.30333 11.4644C5.21787 11.396 5.14671 11.3114 5.09392 11.2156C5.04113 11.1197 5.00775 11.0143 4.99568 10.9055C4.9713 10.6857 5.0352 10.4653 5.17333 10.2927C5.31147 10.1202 5.51252 10.0095 5.73225 9.98507C5.84104 9.97298 5.95116 9.98248 6.05629 10.013C6.16143 10.0434 6.25953 10.0943 6.345 10.1627L9.74167 12.8802L14.9308 5.83773C14.9933 5.74399 15.0742 5.66388 15.1684 5.60226C15.2627 5.54063 15.3686 5.49878 15.4795 5.4792C15.5904 5.45963 15.7042 5.46274 15.8139 5.48838C15.9236 5.51401 16.0269 5.56161 16.1178 5.62832C16.2085 5.69502 16.2848 5.77943 16.3421 5.87647C16.3993 5.97349 16.4362 6.08113 16.4507 6.19284C16.4652 6.30456 16.4568 6.41805 16.4262 6.52646C16.3956 6.63487 16.3433 6.73594 16.2725 6.82357Z" fill="#43B6A7"/>
</g>
<defs>
<clipPath id="clip0_3014_5139">
<rect width="20" height="20" fill="white" transform="translate(0.5 -0.00976562)"/>
</clipPath>
</defs>
</svg>
